<svg xmlns="http://www.w3.org/2000/svg" xmlns:xlink="http://www.w3.org/1999/xlink" id="Artwork" x="0" y="0" version="1.1" viewBox="0 0 288 288" xml:space="preserve" style="enable-background:new 0 0 288 288"><style type="text/css">.st0{fill:none}.st1{fill:#28a505}</style><g><rect width="100%" height="100%" x="47.44" y="37.3" class="st0"/><path d="M206.67,70.11c0.59,0,1.08,0.49,1.08,1.08v26.54c0,0.6-0.49,1.08-1.08,1.08h-96.62 c-0.59,0-1.08,0.48-1.08,1.08v116.9c0,0.6-0.48,1.08-1.09,1.08H81.34c-0.6,0-1.09-0.48-1.09-1.08V71.19c0-0.59,0.49-1.08,1.09-1.08 H206.67z M143.36,129.71c-0.93-0.92-1.57,0.03-1.57,0.74v81.77c0,1.34,0.79,1.59,1.79,0.59l42.13-39.12c0.51-0.51,0.51-1.33,0-1.83 L143.36,129.71z" class="st1"/></g></svg>