<svg xmlns="http://www.w3.org/2000/svg" xmlns:xlink="http://www.w3.org/1999/xlink" width="100%" height="100%" viewBox="0 0 18 18"><defs><linearGradient id="a7b7c4f3-d91e-49b8-90e6-72671b0cd32e" x1="9" x2="9" y1="2.06" y2="17.65" gradientTransform="matrix(1, 0, 0, -1, 0, 18.85)" gradientUnits="userSpaceOnUse"><stop offset="0" stop-color="#5e9624"/><stop offset=".32" stop-color="#639d26"/><stop offset=".79" stop-color="#6fb12a"/><stop offset="1" stop-color="#76bc2d"/></linearGradient></defs><g><path fill="#76bc2d" d="M16.08,8.44c0,4.57-5.62,8.25-6.85,9a.47.47,0,0,1-.46,0c-1.23-.75-6.85-4.43-6.85-9V2.94a.44.44,0,0,1,.43-.44C6.73,2.39,5.72.5,9,.5s2.27,1.89,6.65,2a.43.43,0,0,1,.43.43Z"/><path fill="url(#a7b7c4f3-d91e-49b8-90e6-72671b0cd32e)" d="M15.5,8.48c0,4.2-5.16,7.57-6.28,8.25a.42.42,0,0,1-.43,0C7.66,16.05,2.5,12.68,2.5,8.48v-5A.4.4,0,0,1,2.9,3h0C6.92,2.93,6,1.2,9,1.2S11.08,2.93,15.1,3a.4.4,0,0,1,.4.4Z"/></g><g><rect width=".5" height="3.82" x="8.54" y="4.23" fill="#ededed" transform="translate(-1.93 6.17) rotate(-35.11)"/><rect width=".5" height="3.91" x="10.63" y="7.43" fill="#ededed" transform="translate(-3.23 6.64) rotate(-29.79)"/><rect width="4.75" height=".5" x="5.14" y="7.67" fill="#ededed" transform="translate(-0.63 0.65) rotate(-4.75)"/><rect width="3.23" height=".5" x="7.44" y="8.86" fill="#ededed" transform="matrix(0.52, -0.86, 0.86, 0.52, -3.42, 12.17)"/><circle cx="7.73" cy="4.63" r=".96" fill="#fff"/><circle cx="9.93" cy="7.73" r="1.15" fill="#fff"/><circle cx="11.86" cy="11.15" r=".9" fill="#fff"/><circle cx="8.29" cy="10.53" r=".78" fill="#fff"/><circle cx="5.15" cy="8.17" r=".78" fill="#fff"/></g></svg>